<?xml version="1.0" standalone="no"?><!DOCTYPE svg PUBLIC "-//W3C//DTD SVG 1.1//EN" "http://www.w3.org/Graphics/SVG/1.1/DTD/svg11.dtd"><svg t="1777693803352" class="icon" viewBox="0 0 1055 1024" version="1.1" xmlns="http://www.w3.org/2000/svg" p-id="14314" xmlns:xlink="http://www.w3.org/1999/xlink" width="206.0546875" height="200"><path d="M524.163745 27.091529a66.470793 65.885663 0 0 0-25.453164 6.436433l-347.56735 166.059955a66.470793 65.885663 0 0 0-35.926995 44.703949L29.494659 617.31238a66.470793 65.885663 0 0 0 9.011005 50.555251 66.470793 65.885663 0 0 0 3.744834 5.266172l240.605545 299.060055a66.470793 65.885663 0 0 0 51.959564 24.809521l385.71784-0.058513a66.470793 65.885663 0 0 0 51.959563-24.809521l240.48852-299.118568a66.470793 65.885663 0 0 0 12.872865-55.76291l-85.897116-373.020514a66.470793 65.885663 0 0 0-35.985509-44.703949L556.462934 33.527962a66.470793 65.885663 0 0 0-32.182162-6.436433z" fill="#326CE5" p-id="14315"></path><path d="M523.988206 0.117026a70.157113 69.630496 0 0 0-26.857477 6.846024l-366.876646 175.2465a70.157113 69.630496 0 0 0-38.033465 47.161496L1.759487 623.163683a70.157113 69.630496 0 0 0 9.537622 53.363875 70.157113 69.630496 0 0 0 3.978886 5.558738l253.946514 315.736265a70.157113 69.630496 0 0 0 54.826702 26.155321l407.250632-0.058513a70.157113 69.630496 0 0 0 54.826701-26.155321l253.888002-315.794779a70.157113 69.630496 0 0 0 13.516508-58.8641l-90.636671-393.792636a70.157113 69.630496 0 0 0-37.916438-47.161496L558.042785 6.904537a70.157113 69.630496 0 0 0-34.054579-6.787511z m0.175539 26.974503a66.470793 65.885663 0 0 1 32.182162 6.436433L904.030283 199.529404a66.470793 65.885663 0 0 1 35.985509 44.703949l85.838603 373.020514a66.470793 65.885663 0 0 1-12.872865 55.76291l-240.430007 299.177081a66.470793 65.885663 0 0 1-51.959563 24.751008l-385.776353 0.058513a66.470793 65.885663 0 0 1-51.959564-24.809521l-240.488519-299.060055a66.470793 65.885663 0 0 1-3.803347-5.266172 66.470793 65.885663 0 0 1-9.011005-50.496738l85.721577-373.020514a66.470793 65.885663 0 0 1 35.926995-44.703949L498.710581 33.586475a66.470793 65.885663 0 0 1 25.453164-6.436433z" fill="#FFFFFF" p-id="14316"></path><path d="M526.621292 191.51312c-8.13331-0.292565-233.818035 110.706637-236.743686 116.382401-7.080076 13.692047-58.454509 250.494246-55.411832 255.643392 1.755391 2.925651 38.73562 49.853095 82.152283 104.153179l78.99258 98.769981 130.015934 0.058513 129.957422 0.058513 82.678899-103.333997 82.737413-103.275483-28.963946-126.914744c-15.915542-69.747522-30.134206-128.026492-31.597031-129.430805-4.095912-3.920372-229.429559-111.993924-233.818036-112.11095z" fill="#FFFFFF" p-id="14317"></path><path d="M769.918437 511.111246a94.49853 94.49853 0 0 1-48.916886-9.420597c4.271451-24.458443 6.085354-49.150938 5.61725-73.667894a382.499624 382.499624 0 0 0-47.6296-56.523579c7.723719-14.569742 19.250784-27.091529 33.586475-35.985509l6.143867-3.803346-4.798068-5.383198a251.020864 251.020864 0 0 0-87.711019-64.013246l-6.670485-2.925651-1.696878 7.021562c-3.978885 16.500672-12.287735 31.304467-23.756286 43.241124a381.036798 381.036798 0 0 0-68.752801-28.320303 381.387876 381.329363 0 0 0-68.577262 28.26179 94.381504 94.381504 0 0 1-23.697774-43.065585l-1.75539-7.021562-6.611972 2.808625A253.595437 253.595437 0 0 0 337.039102 326.26861l-4.798068 5.441711 6.143867 3.803346c14.33569 8.835466 25.74573 21.29874 33.527962 35.80997-17.846472 17.378367-33.703501 36.278074-47.571087 56.289527-0.58513 24.575469 1.17026 49.38499 5.441711 74.194511a94.322991 94.322991 0 0 1-48.682834 9.362084l-7.197102-0.58513 0.643643 7.197101c3.569294 36.512126 14.920821 71.268861 33.762014 103.275484l3.68632 6.20238 5.500224-4.681042a94.440017 94.440017 0 0 1 44.703949-20.889148 383.026241 383.026241 0 0 0 38.209003 62.257855c23.288183 8.191823 47.512574 14.218664 72.556147 17.846471a94.205965 94.205965 0 0 1-6.085354 49.443504l-2.750112 6.728997 7.080076 1.579852c18.139037 3.978885 36.3951 5.968328 54.300084 5.968328l54.300084-5.968328 7.080076-1.579852-2.750112-6.728997a94.440017 94.440017 0 0 1-6.026841-49.502017 386.595535 386.595535 0 0 0 72.205069-17.787958 383.494345 383.494345 0 0 0 38.326029-62.316369 94.849608 94.849608 0 0 1 44.879488 20.947662l5.558737 4.681042 3.627807-6.260893a248.680343 248.680343 0 0 0 33.703501-103.216971l0.702156-7.197101z m-166.879138 88.29615c-25.687217 6.96305-51.725511 10.532344-77.705293 10.532344-25.979782 0-52.076589-3.569294-77.763806-10.532344a301.225036 301.225036 0 0 1-33.235396-70.157114 297.655742 297.655742 0 0 1-14.043126-76.88611c16.617698-20.538071 35.458891-38.501568 56.34804-53.656441a299.996263 299.996263 0 0 1 68.694288-37.389821 301.225036 301.225036 0 0 1 68.635775 37.272795c20.947662 15.213386 39.905881 33.352422 56.582092 54.007519a298.416411 298.416411 0 0 1-14.160152 76.652058 300.288828 300.288828 0 0 1-33.352422 70.157114z m-56.465066-123.872068a32.767292 32.767292 0 1 0 65.65161 0 32.767292 32.767292 0 0 0-65.65161 0z m-42.421941 0a32.767292 32.767292 0 1 1-65.65161 0 32.767292 32.767292 0 0 1 65.65161 0z" fill="#326CE5" p-id="14318"></path></svg>