<?xml version="1.0" standalone="no"?><!DOCTYPE svg PUBLIC "-//W3C//DTD SVG 1.1//EN" "http://www.w3.org/Graphics/SVG/1.1/DTD/svg11.dtd"><svg t="1777694211105" class="icon" viewBox="150 150 724 724" version="1.1" xmlns="http://www.w3.org/2000/svg" p-id="22850" xmlns:xlink="http://www.w3.org/1999/xlink" width="200" height="200"><path d="M422.912 196.608l-210.432 209.92c-49.152 49.152-49.152 129.536 0 178.688l210.432 210.432c49.152 49.152 129.536 49.152 178.688 0l210.432-210.432c49.152-49.152 49.152-129.536 0-178.688l-210.432-210.432c-24.576-24.576-56.832-36.864-89.088-36.864-32.768 0.512-65.024 12.8-89.6 37.376" fill="#2FA7CC" p-id="22851"></path><path d="M390.656 602.112c59.392-43.008-43.008-85.504-68.096-98.304s0-37.888 26.624-49.152 17.408 71.68 49.152 40.448c30.208-30.208-51.712-65.536 18.432-107.52 69.632-41.984-30.72-30.72-30.72-69.632S430.08 273.92 430.08 243.712c0-19.968-33.792-23.04-57.344-23.04L200.192 392.704c-3.584 3.584-7.168 7.68-10.752 11.776 1.024 32.256 39.424 37.376 61.44 37.376 27.648 0 43.008 43.008 15.36 70.656s-29.696 75.264-11.776 93.184c12.288 12.288 8.192 34.816 4.096 48.64l32.768 32.768c8.704-29.184 47.616-47.616 99.328-84.992M497.664 186.88c47.616-6.144 3.584 32.768 26.112 43.008 20.48 8.704 75.264-18.432 80.896-55.296-26.624-22.528-59.904-33.792-92.672-33.792-14.848 0-29.184 2.048-43.52 6.656-2.56 18.944-0.512 43.52 29.184 39.424M613.888 454.656c-7.68-32.768-83.968-44.544-120.32-17.92-53.76 38.912-62.464 114.176-20.48 118.784 41.472 4.096 79.872 44.544 58.88 84.48s25.088 137.216 76.288 66.56c50.688-70.656 25.6-84.48 29.696-123.392s51.712-88.064 39.936-102.4c-12.288-14.336-57.856-0.512-64-26.112M442.88 830.464c21.504 11.776 45.056 17.408 69.12 17.408 36.864 0 73.728-13.824 101.376-41.984l17.92-17.92c-30.208-5.12-135.168 26.112-188.416 42.496M744.448 552.96c-56.832 19.456-96.256 82.944-63.488 91.648 30.72 8.192 63.488-16.384 85.504 8.192l56.832-56.832c-10.24-22.528-28.16-60.416-78.848-43.008M561.152 322.048c12.8-1.536 2.56-16.384-4.608-19.456s-30.72-1.536-22.016 9.216c6.656 7.68 13.824 11.776 26.624 10.24M835.584 491.52c0-7.68-28.16-15.36-35.328-14.848s-9.728 13.312 10.752 17.92c15.36 4.096 24.576 4.096 24.576-3.072" fill="#5AD81E" p-id="22852"></path><path d="M591.36 263.68c-3.072 25.088 21.504 34.304 9.216 46.592-12.288 12.288-85.504 38.912-68.096 46.592 46.08 20.48-31.744 17.92 0 49.664 15.872 15.872 66.048-12.288 60.416-31.232-1.536-5.12 13.824-25.6 26.112-14.848 10.752 9.216 43.52 19.456 43.52 73.728 0 28.672 25.088 56.832 50.176 50.176 20.992-5.632 24.576-32.256 11.776-41.984-16.896-12.288 28.16-27.648 73.728 22.016 20.992 22.528 55.808-5.12 62.976-6.656-6.144-24.064-18.432-46.592-37.376-65.024l-174.08-174.08c-31.744 3.584-56.832 34.816-58.368 45.056" fill="#5AD81E" p-id="22853"></path><path d="M512 849.408c-36.864 0-73.728-13.824-101.376-41.984l-210.432-210.432c-28.16-28.16-41.984-65.024-41.984-101.888 0-36.864 13.824-73.728 41.984-101.376l210.432-210.432c28.16-28.16 65.024-41.984 101.376-41.984 36.864 0 73.728 13.824 101.888 41.984l209.92 210.944c28.16 28.16 41.984 65.024 41.984 101.376 0 36.864-13.824 73.728-41.984 101.888l-210.432 210.432c-27.648 27.648-64.512 41.472-101.376 41.472zM224.768 418.816c-20.992 20.992-31.744 48.64-31.744 76.8s10.752 55.808 31.744 76.8L435.2 782.848c20.992 20.992 49.152 31.744 76.8 31.744 28.16 0 55.808-10.752 76.8-31.744l210.432-210.432c20.992-20.992 31.744-49.152 31.744-76.8 0-28.16-10.752-55.808-31.744-76.8l-210.432-209.92c-20.992-20.992-49.152-31.744-76.8-31.744-28.16 0-55.808 10.752-76.8 31.744l-210.432 209.92z" fill="#0092C8" opacity=".25" p-id="22854"></path><path d="M847.872 425.984c-6.144-11.264-14.336-22.016-23.552-31.744l-210.432-210.432c-28.16-28.16-65.024-41.984-101.888-41.984-36.864 0-73.728 13.824-101.376 41.984L200.192 394.24c-28.16 28.16-41.984 64.512-41.984 101.376 0 36.864 13.824 73.728 41.984 101.888l25.088 25.088c44.544-69.12 259.072-360.96 622.592-196.608" fill="#FFFFFF" opacity=".2" p-id="22855"></path></svg>
