<?xml version="1.0" standalone="no"?><!DOCTYPE svg PUBLIC "-//W3C//DTD SVG 1.1//EN" "http://www.w3.org/Graphics/SVG/1.1/DTD/svg11.dtd"><svg t="1777693898462" class="icon" viewBox="0 0 1024 1024" version="1.1" xmlns="http://www.w3.org/2000/svg" p-id="20335" xmlns:xlink="http://www.w3.org/1999/xlink" width="200" height="200"><path d="M787.374699 80.879049l15.989437 10.616986 7.09931 4.988705 7.035353 5.11662c32.298663 24.048113 61.655269 51.805776 87.558156 82.761325l4.477043 5.564324 4.349127 5.69224 15.221944 20.146691c14.710282 20.594395 27.885578 42.212114 39.397972 64.725241l0.447705 0.959366 0.511662 0.959366 10.233239 21.425846c12.855507 28.780987 23.088747 58.841128 30.443888 89.540847l2.430395 11.000732 2.174563 11.064691c3.197887 16.565057 5.564324 33.258029 7.035352 50.078916l1.72686 25.199353 0.383746 8.698254 0.255831 8.762211 0.063958 4.029338c0 31.339296-2.878099 62.48672-8.634296 93.250397l-4.796831 22.960831-0.831451 3.197888a511.661983 511.661983 0 1 1-222.572963-550.740168z m-475.653771 65.236903a417.132432 417.132432 0 0 0-38.05486 708.204143l14.134662 9.465746 6.843479-77.005128 202.106484 89.093143 4.349127 53.532635c3.837465 0.063958 7.547014 0.255831 11.384479 0.255831a418.091798 418.091798 0 0 0 404.276924-313.712754l3.70955-15.413817-415.405573-144.160764v24.303944h19.187324v47.456649h-25.774972l13.559043 141.986201-197.11778-74.190988 7.035353-67.795213h-30.37993v-47.392691h19.187324V383.910859h-19.187324v-27.82162l106.297777-88.90127V260.984067c0-4.732873 4.477042-8.570338 10.041366-8.570338 4.477042 0 8.186592 2.430394 9.529704 5.884113l0.511662 2.686225v6.26786l106.297777 88.837312-0.063957 25.711014 212.787427-221.293808a417.132432 417.132432 0 0 0-425.255066-14.390493z m169.743863 782.267215c6.52369 0.511662 13.047381 0.831451 19.635029 1.023324l-19.635029-1.023324z m-79.563438-13.686958l6.139943 1.598944a414.765995 414.765995 0 0 1-6.139943-1.598944z m-79.627396-31.019508l7.547014 3.709549 7.547014 3.645592-15.094028-7.355141z m-46.753114-2.942056l4.413084 2.942056 5.052662 3.069972-9.465746-6.012028z m43.17148 1.023324l1.790817 0.959366 1.726859 0.895408-3.517676-1.854774z m-9.849494-5.372451l6.203902 3.453718 3.645592 1.918733-9.849494-5.372451z m-40.03755 0l2.622268 1.854775 2.366437 1.40707-4.988705-3.261845z m-6.331817-4.349127l2.942057 2.174563 2.55831 1.598944-5.500367-3.773507z m-7.227225-5.11662l2.302479 1.790817 3.453718 2.302479-5.756197-4.093296z m-8.698254-6.459732l4.860789 3.773507 3.837465 2.686225-8.698254-6.459732z m-4.221211-3.261846l1.790817 1.471029 2.430394 1.790817-4.221211-3.261846z m-11.192606-8.954084l7.674929 6.267859 3.517677 2.686225-11.192606-8.954084z m68.43479-117.170594l192.25699 84.744016 2.814141 34.473226-197.885272-87.174411 2.814141-31.978874z m-77.964495 108.856087l5.052662 4.477042 4.477043 3.837465-9.529705-8.314507z m-3.517676-3.13393l0.511662 0.511662 2.046648 1.726859-2.55831-2.238521z m-9.273873-8.634296l6.075986 5.756197 2.174563 1.98269-8.250549-7.738887z m-3.453719-3.325803l1.15124 1.151239 0.767493 0.703536-1.918733-1.854775z m-8.250549-8.378465l5.756197 5.884113 2.494352 2.494352-8.250549-8.378465z m-10.041367-10.808859l5.756198 6.395774 2.046648 2.174564-7.802846-8.570338z m-12.215929-14.070705l1.918732 2.302479 0.511662 0.57562-2.430394-2.878099z m-2.814141-3.453718l1.087281 1.343112 1.72686 2.110606-2.814141-3.453718z m132.456496-112.75751l182.407497 80.394889 2.814141 34.537184-188.035779-82.953199 2.814141-31.978874z m-136.677708 107.449017l2.55831 3.38976 1.662902 1.918733-4.221212-5.308493z m-6.331817-8.25055l1.471028 1.98269 3.453719 4.477043-4.924747-6.459733z m-6.779521-9.401789l4.029338 5.756198 2.750183 3.645591-6.779521-9.401789z m-2.622268-3.773507l1.279155 1.918733 1.343113 1.854774-2.622268-3.773507z m-7.93076-11.704268l3.581633 5.500367 4.349127 6.203901-7.93076-11.704268z m-8.570339-13.942789l1.854775 3.197888 5.628282 8.954084-7.483057-12.151972z m173.837159-116.083312l172.558004 76.045762 2.814141 34.537184-178.186286-78.604072 2.814141-31.978874zM114.539191 695.640922l4.477043 9.593662c2.814141 5.756197 5.756197 11.512395 8.826169 17.076719l2.55831 4.413085-2.942057-5.244536a438.750151 438.750151 0 0 1-7.547014-14.518408l-5.372451-11.320522z m-6.52369-14.838197l2.942056 7.035352 1.918733 4.285169-4.860789-11.320521z m-7.355141-18.867536l2.942056 8.122634 2.174564 5.244535-5.11662-13.367169z m-4.732873-13.750916l1.151239 3.837465 2.55831 6.971395-3.709549-10.80886z m-5.11662-16.629014l0.511662 2.046648 3.006014 9.465746-3.517676-11.512394z m-10.872817-49.247466l2.302479 13.686958c1.279155 6.395775 2.622268 12.663634 4.157253 18.931493l3.006014 11.384479-3.006014-11.832183a437.470996 437.470996 0 0 1-6.459732-32.170747z m-1.918733-12.663634l0.959366 7.227225 0.895409 5.11662a437.470996 437.470996 0 0 1-1.790817-12.343845z m-2.110605-19.123367l0.639577 6.971395 0.639578 5.436408-0.639578-5.692239-0.639577-6.715564z m-1.15124-18.291916l0.191873 5.756198 0.639578 8.186591-0.831451-13.942789z m-0.447704-22.065423l-0.063958 8.122634 0.383747 10.936775-0.319789-13.814873v-5.244536z m307.636767-416.237023l-5.500366 1.726859a438.366404 438.366404 0 0 0-302.008486 402.805896l-0.063957 5.756198 0.127915-5.756198a438.110573 438.110573 0 0 1 289.536725-398.456769l17.908169-6.075986z m123.118665 338.848148v20.722311l423.592164 30.443888a414.893911 414.893911 0 0 0-5.244535-43.683142l-4.285169-21.553761-414.06246 14.070704z m-30.699719-48.863719H341.397323v96.83203h31.53117v-41.380663c0-16.437141 15.669648-29.804311 34.92093-29.80431 17.140676 0 31.339296 10.553028 34.345311 24.43186l0.57562 5.37245v41.380663h31.467212V383.910859z m403.189643-73.807241A420.010531 420.010531 0 0 0 841.994616 256.507025l-13.623-16.629014-323.306416 167.24951v24.495818l373.321375-119.920778-0.831451-1.598943zM522.205876 383.846901h-17.076718l-0.063958 17.780254 17.140676-17.780254z m353.430515-116.658932l11.768226 18.227958-8.122634-12.855507-3.645592-5.372451z m-13.814873-19.379198l12.535718 17.524423-3.645591-5.308493a438.942024 438.942024 0 0 0-8.954085-12.21593z m-14.326536-17.908169l-19.187324 9.977409 19.187324-9.913451z m-115.507692-96.768073l4.796831 2.750183-1.087282-0.639577-3.709549-2.110606z m-16.820888-9.273873l5.884113 3.069972-1.726859-0.895409-4.157254-2.174563z m-12.535719-6.331817l11.384479 5.756197-8.954084-4.604958-2.430395-1.151239z m-15.60569-7.163268l10.041366 4.604958-8.314507-3.837465-1.726859-0.767493z m-10.936775-4.541l10.936775 4.541-1.279155-0.511662-5.500366-2.366437-4.157254-1.662901z m-13.239254-5.052662l11.896141 4.477042 1.343113 0.57562-3.901423-1.598944-9.337831-3.453718z m-5.436408-1.98269l2.878098 1.023324-1.662901-0.639578-1.215197-0.383746z m-26.670381-8.378465l11.64031 3.38976 15.030071 4.988705-2.046648-0.767493a437.598911 437.598911 0 0 0-16.948804-5.436409l-7.674929-2.174563z m-211.124526-6.395775l-8.762212 1.918732a437.470996 437.470996 0 0 0-17.268592 4.477043l-10.105324 3.069972 17.90817-5.052662 18.227958-4.413085z m201.658779 3.773507l9.082 2.494352-4.413084-1.279155-4.668916-1.215197z m-13.623-3.197887l13.623 3.197887-3.581634-0.895408-8.314507-1.918733-1.726859-0.383746z m-14.070705-2.878099l14.070705 2.878099-3.581634-0.831451-10.489071-2.046648z m-135.526468-4.221211l-12.279887 1.662901c-5.884113 0.895408-11.704268 1.918732-17.524423 3.069972l-7.163268 1.471028 18.164-3.453718 18.803578-2.750183z m134.247313 3.96538l1.279155 0.255831-0.895408-0.191873-0.383747-0.063958z m-16.373183-2.686225l16.373183 2.686225-5.628282-1.087282-10.744901-1.598943z m-3.389761-0.511662l3.389761 0.511662-2.238521-0.383747-1.15124-0.127915z m-16.501099-1.982691l16.501099 1.982691-3.389761-0.511662-13.111338-1.471029zM458.567917 77.425331h-0.127915l-0.383747 0.063958 0.511662-0.063958z m19.059409-1.918733l-14.262578 1.279155-4.796831 0.639578 19.059409-1.918733z m76.941171 0.639578l-0.383747-0.063958 1.854775 0.191873-1.471028-0.127915z m-13.239254-1.023324l12.855507 0.959366-2.558309-0.255831-10.297198-0.703535z m-50.526621-0.447704l-9.849493 0.511662-3.325803 0.319788 13.175296-0.83145z m42.403987-0.063958l7.930761 0.511662-5.756197-0.383747-2.174564-0.127915z m-33.833649-0.319789l-2.558309 0.127916-6.012029 0.255831 8.570338-0.383747z m21.0421-0.063958l12.791549 0.383747-5.11662-0.255831-7.674929-0.127916z m-15.861522-0.127915l-5.180578 0.191873 12.279888-0.127915h-7.09931z m11.512395 0l-4.413085 0.063958 8.762212 0.063957-4.28517-0.063957z" fill="#007E00" p-id="20336"></path></svg>