<?xml version="1.0" standalone="no"?><!DOCTYPE svg PUBLIC "-//W3C//DTD SVG 1.1//EN" "http://www.w3.org/Graphics/SVG/1.1/DTD/svg11.dtd"><svg t="1777693691716" class="icon" viewBox="0 0 1024 1024" version="1.1" xmlns="http://www.w3.org/2000/svg" p-id="6010" xmlns:xlink="http://www.w3.org/1999/xlink" width="200" height="200"><path d="M579.801671 1021.732556c-1.226489-0.660074-14.974766-13.977519-30.550735-29.596304L520.930181 963.74057V779.055352c0-101.576513-0.257786-184.942111-0.571767-185.257876-0.578903-0.577119-47.000857 22.752939-183.547928 92.245381-41.167228 20.951115-75.416163 37.875776-76.108349 37.609963-0.808145-0.309521-1.075743-1.212218-0.746597-2.521662 0.280978-1.121234 0.908048-5.782786 1.393292-10.359599 2.456547-23.178419 20.744172-77.628304 40.145004-119.526965 52.870166-114.177688 138.41401-208.803797 247.25134-273.499996 17.762242-10.558513 32.682597-18.28049 34.196308-17.699803 1.154238 0.44332 1.320149 12.461132 1.320148 95.532373 0 68.047415 0.276518 95.024829 0.973164 95.024829 0.535195 0 4.615168-1.881212 9.067102-4.179876 31.222406-16.126328 53.884362-46.248016 61.458268-81.688652 2.56091-11.984808 2.791936-33.827023 0.478999-45.416679-4.248559-21.295424-14.05423-41.32957-27.876542-56.955491-6.825525-7.715733-29.486589-31.545307-69.52723-73.113039-60.543976-62.85156-71.629656-74.865804-78.722779-85.319062-5.203883-7.671134-9.695956-17.048648-12.418316-25.923079-2.182705-7.117206-2.408379-9.193764-2.456547-22.556701-0.057979-16.311863 0.8688-21.388191 6.230566-34.116921 10.34711-24.562791 37.304901-47.474505 59.719775-50.757037 15.723148-2.30134 35.588708-1.85802 48.511892 1.085555 10.534429 2.399459 27.600025 12.68859 39.298504 23.693099 13.733113 12.919616 20.646945 23.231939 72.287054 107.816891 60.936453 99.812152 68.202622 112.116293 69.243577 117.246141 1.030251 5.07722 0.284546 7.222461-2.488659 7.160022-2.309368-0.051736-1.610046 0.664534-111.320636-114.148252-9.610325-10.057213-26.346776-27.71866-37.190726-39.24766-28.302023-30.087792-40.045101-41.424121-45.369404-43.795037-6.815713-3.036342-16.271723-2.897191-22.857302 0.337173-12.91248 6.341173-19.024411 20.966279-14.153241 33.868947 2.415515 6.396477-0.94908 2.730388 78.382037 85.40826 35.54054 37.039979 67.643342 70.957986 71.340651 75.373348 59.660904 71.255911 54.81025 177.134503-11.114224 242.615656-15.137109 15.03453-30.268866 25.335257-58.304183 39.687412-9.566617 4.897038-18.697942 9.707552-20.292825 10.689636l-2.898975 1.783984v230.075137c0 126.540701-0.243514 230.708451-0.541439 231.484484-0.627071 1.635022-0.918752 1.636806-3.918522 0.021408zM421.357083 575.392999c78.09214-40.082565 94.209548-48.561844 96.4984-50.765064 1.436108-1.380804 2.062286-3.371731 2.490443-7.900376 0.864341-9.154517 0.697538-105.33626-0.183751-105.881267-1.940975-1.19973-34.743099 27.953254-56.765496 50.451083-38.072014 38.890863-69.900975 82.807211-96.067569 132.545593-3.421682 6.504408-5.937101 11.826926-5.590115 11.826925s27.176329-13.62429 59.61898-30.276894z" fill="#F8E6EA" p-id="6011"></path><path d="M551.074168 993.014864L520.930181 962.906557V592.14283l-55.080524 27.844431c-30.293842 15.315507-88.475822 44.850264-129.291604 65.635468C295.74227 706.407041 261.681545 723.412874 260.865372 723.412874c-1.162266 0-1.353152-0.516464-0.88218-2.390539 0.330037-1.315689 0.94908-5.430449 1.376344-9.142921 1.823232-15.865867 14.460979-57.495146 26.893567-88.588213 53.773755-134.483892 150.410414-244.124907 277.2312-314.536102 8.069854-4.480477 15.352079-8.146565 16.183416-8.146565 0.831337 0 1.754549 0.635099 2.052474 1.411132 0.297925 0.776033 0.541439 43.752221 0.541439 95.502937v94.092697l2.006983-0.620826c2.899867-0.896452 8.011875-3.559049 14.80172-7.711273 27.427871-16.772131 46.275667-42.619391 54.325898-74.499196 2.235333-8.855699 2.427111-11.011645 2.440491-27.45017 0.015164-19.049387-0.730542-24.269326-5.54284-38.801664-3.080941-9.307047-10.964369-24.245242-17.15658-32.514903-7.174294-9.579997-22.340839-25.688486-100.384811-106.617161-24.971324-25.894536-45.176733-47.717127-49.941756-53.937881-21.599593-28.200336-25.742005-60.52792-11.585195-90.412337 5.070084-10.703907 10.070593-17.640931 18.842445-26.139834 11.925045-11.553976 27.571481-20.209869 40.35373-22.324783 10.413118-1.721545 27.417167-1.931163 37.269222-0.4567 23.601224 3.532289 45.565642 18.274246 64.202036 43.092147 9.658492 12.860745 37.664374 57.988418 105.454895 169.920961 20.533662 33.904627 23.755538 40.579405 20.945763 43.389181-2.449411 2.449411 1.730465 6.606987-94.014202-93.519147-20.385592-21.318615-46.121353-48.393257-57.190977-60.167555-30.241214-32.167026-39.345779-40.774751-45.603998-43.116231-14.378916-5.378713-28.812243 0.361257-36.000808 14.319152-3.396707 6.594499-3.439522 15.081805-0.112391 22.296239 2.812452 6.101227-1.411132 1.535119 78.634471 84.996161 35.288999 36.794681 66.747782 69.909895 69.909895 73.589363 21.793155 25.364692 36.405773 58.872382 40.844327 93.659189 1.845532 14.462763 1.395968 38.460031-0.967812 51.735552-6.67567 37.489543-23.740374 70.545885-49.944432 96.749943-16.292239 16.293131-29.697991 25.347745-62.40824 42.153771l-18.731837 9.624596-0.450456 231.911749c-0.247082 127.55222-0.548575 232.012544-0.668995 232.135639-1.079311 1.100718-6.230566-3.633085-32.513118-29.884418zM424.372017 574.387724c83.326351-42.710374 91.292734-46.938418 94.106077-49.960488l2.452979-2.633161v-56.181241c0-30.899505-0.265814-56.181242-0.591391-56.181242-0.324685 0-3.636653 2.488658-7.358936 5.530352-44.907351 36.69567-82.891058 78.261619-113.97253 124.721928-17.516944 26.185325-40.856814 67.901128-37.233542 66.548868 0.945512-0.353229 29.114628-14.683085 62.597343-31.844124z" fill="#F5DBE0" p-id="6012"></path><path d="M566.211277 1008.181409c-8.329424-8.217925-21.92517-22.038453-30.211779-30.71397L520.930181 961.694339V776.992174C520.930181 675.40585 520.779434 592.290009 520.595684 592.290009c-0.454024 0-108.969345 54.96724-191.293097 96.898013C292.345563 708.011735 261.495118 723.412874 260.745845 723.412874c-1.014195 0-1.217569-0.579795-0.793873-2.269228 0.313981-1.248789 0.936592-5.163743 1.385264-8.700493 0.448672-3.536749 2.408379-12.651126 4.35649-20.253577 10.013505-39.091562 23.410337-74.405536 43.820013-115.509432 12.923184-26.025659 24.035624-45.439871 38.80434-67.791413C396.973582 435.247632 462.972982 371.4907 539.662019 324.045631 555.780319 314.073157 580.081757 300.608534 581.960292 300.608534c1.275549 0 1.409348 9.018042 1.409348 95.024829 0 80.419348 0.190886 95.098865 1.243437 95.502938 0.683266 0.262246 4.019317-0.921428 7.412456-2.631378 27.830159-14.014091 49.674158-38.714249 59.919582-67.755733 4.775727-13.537767 6.591823-24.337117 6.630178-39.415355 0.061547-24.693914-6.338497-46.222148-19.754953-66.453425-7.068147-10.659308-14.623321-18.859393-77.263479-83.865114-66.429341-68.939407-74.274413-77.498073-82.256852-89.745127-9.692388-14.868619-13.936487-29.001345-13.895456-46.265855 0.015164-6.331361 0.597635-13.296037 1.424512-17.050433C472.887477 50.458219 490.936048 28.082593 516.744953 16.062997c11.372902-5.294866 20.592534-7.135938 35.740347-7.135938 21.523774 0 36.651963 4.748075 53.884361 16.911281 19.903916 14.048878 27.268204 24.157827 77.351787 106.187221 57.47909 94.141757 75.640945 124.638081 76.730959 128.839365 0.643126 2.479739 1.10161 4.521509 1.019548 4.538457-0.082063 0.016948-0.834013 0.553035-1.668918 1.190809-1.321041 1.007951-2.122942 0.597635-6.147611-3.151408-6.366149-5.931749-113.831595-118.150621-147.262573-153.778577-30.019108-31.989519-34.532589-36.239862-42.23405-39.765016-13.631426-6.24127-29.879065-0.148963-36.711727 13.763441-2.075666 4.228043-2.499362 6.238594-2.484198 11.787678 0.016056 5.603495 0.445996 7.538227 2.645649 11.915233 2.663489 5.300218 3.623273 6.321549 118.477982 126.078648 14.624213 15.2495 29.277863 31.080579 32.561286 35.180176 43.192942 53.923609 51.545558 127.483536 21.543398 189.736569-9.646896 20.017199-20.933275 35.438853-37.692026 51.505418-15.977366 15.317291-27.231632 22.785943-59.059701 39.196817-10.302511 5.311814-19.026195 10.085757-19.387452 10.609356-0.360365 0.523599-0.660966 105.014251-0.668994 232.200754-0.009812 171.274113-0.274734 231.248998-1.021331 231.248999-0.553927 0-7.822772-6.722946-16.150412-14.940871zM373.936097 600.417843c6.521356-3.379759 35.941045-18.496352 65.37679-33.59243 69.978578-35.889309 78.200963-40.264531 80.036683-42.597983 1.422728-1.808068 1.543147-6.29033 1.560987-58.377327 0.010704-31.374936-0.324685-56.418512-0.755518-56.418511-0.426372 0-6.94862 5.176231-14.494874 11.501348-49.053331 41.12352-89.417766 88.28672-121.846145 142.36732C376.208893 575.983498 360.371571 604.84034 360.371571 606.014202c0 1.201514 2.183597 0.300601 13.564526-5.596359z" fill="#F3D5DA" p-id="6013"></path><path d="M551.886773 993.482268c-16.089757-16.322567-29.636443-30.606931-30.10474-31.742437-0.531627-1.288929-0.851853-71.140844-0.851852-185.757392C520.930181 674.950933 520.671503 592.290009 520.357522 592.290009c-0.655614 0-52.239528 26.097018-173.895679 87.977198C299.808863 703.998662 261.131186 723.412874 260.511251 723.412874c-0.740354 0-0.946404-0.724298-0.600311-2.10421 0.290789-1.156914 0.94908-5.070084 1.462867-8.696925 3.330699-23.495077 19.63275-73.402045 36.097144-110.509815C346.316448 492.016697 422.764646 401.509808 523.160161 334.910097c24.808089-16.457258 57.404163-35.037457 59.353167-33.833267 0.538763 0.332713 0.856313 35.759078 0.856312 95.473501 0 85.96308 0.133799 94.94455 1.41024 94.94455 2.182705 0 13.387912-5.863957 21.781559-11.398769 9.206252-6.070007 24.610067-21.286504 30.940537-30.563223 9.373055-13.736681 16.332379-30.429425 19.595286-46.996397 2.093506-10.634332 2.101534-32.626402 0.014272-43.21881-3.072913-15.600945-9.140245-30.538248-17.773838-43.759358-7.531091-11.53346-11.411257-15.757044-81.337208-88.539153-65.918229-68.610262-67.092091-69.868863-74.46976-79.819037-19.571203-26.395836-23.486157-56.300769-11.217694-85.693698 10.747615-25.748249 36.325494-46.506693 63.153053-51.252093 9.287424-1.64305 24.71889-1.66089 34.603948-0.040139 14.217465 2.331668 28.39033 9.172357 42.387473 20.457842 16.944285 13.662646 23.291702 22.870682 80.623615 116.959812 59.815218 98.165534 66.75581 109.906829 67.363256 113.958258 0.654722 4.366302-0.173047 5.616875-3.099673 4.688311-0.952648-0.302385-15.114809-14.477035-31.472163-31.500707-58.236392-60.605523-92.45054-96.484129-117.153374-122.850529C569.77211 70.355891 566.213061 67.510436 553.041903 67.406073c-5.571384-0.0446-7.531091 0.359473-11.722563 2.417299-5.592792 2.747336-11.169527 8.275904-14.289716 14.164837-1.644834 3.105917-2.057826 5.303786-2.069422 11.016105-0.023192 10.322135 2.311152 14.554638 15.864082 28.770319 5.962076 6.252866 37.720569 39.403759 70.57443 73.669642 32.852076 34.264099 62.298525 65.37233 65.436553 69.129401 29.710479 35.578004 44.855616 84.608144 40.310023 130.498471-5.075436 51.239604-30.446372 96.510889-70.996341 126.683419-10.980425 8.170649-18.410721 12.534276-42.922669 25.21127L583.815636 559.005317l-0.224782 232.058927c-0.178398 184.731601-0.451348 232.061603-1.337988 232.076767-0.611907 0.010704-14.277228-13.335285-30.366093-29.658743zM422.81103 575.562478c81.668137-41.896877 93.98209-48.397717 96.112168-50.740089l2.006983-2.207681v-56.591558c0-36.47178-0.312197-56.591558-0.876829-56.591558-1.266629 0-22.260559 17.695343-37.312037 31.449864-37.540387 34.304239-74.880076 80.914404-102.127764 127.483536C371.708792 583.584164 360.371571 604.901888 360.371571 606.426303c0 1.234517-3.551913 2.989958 62.439459-30.863825z" fill="#F0CDD3" p-id="6014"></path><path d="M551.770814 993.136175l-29.874606-30.223374-0.037463-184.812772c-0.024976-124.729956-0.332713-184.995631-0.947296-185.37562-0.927672-0.573551-54.945832 26.516254-186.131137 93.342532C294.458693 706.607739 261.015227 723.412874 260.462191 723.412874c-0.553035 0-0.786737-0.701998-0.520031-1.560987 0.267598-0.858989 0.894668-4.464421 1.393292-8.011874C264.306678 692.689984 277.574171 649.698632 291.276957 616.819797 319.119604 550.010467 356.232726 490.791992 402.803643 438.867337c12.771545-14.239765 43.297305-44.264225 56.57907-55.649614 24.534248-21.033178 50.8168-40.414386 76.711336-56.569259 17.845198-11.132956 43.036843-25.299577 45.30072-25.475299 1.43254-0.111499 1.557419 5.905881 1.974871 95.324539 0.44332 94.822347 0.457592 95.44139 2.229981 95.151492 2.428895-0.397829 13.638562-6.466944 21.333779-11.5513 8.613969-5.690911 25.857072-23.056216 31.638966-31.86464 8.837859-13.462839 15.183493-28.870222 18.551656-45.04561 2.204113-10.582596 2.193409-34.108001-0.020516-44.599614-4.129032-19.566743-13.605558-39.798911-25.070335-53.519537-5.515188-6.600743-25.191646-27.395759-70.05529-74.035359-68.808284-71.532429-73.642883-76.791615-81.703816-88.851351-5.73551-8.58275-9.436386-16.465285-12.188183-25.957867-1.742061-6.012028-2.006091-8.928843-1.957923-21.665601 0.049952-13.359368 0.276518-15.441278 2.458331-22.5567 8.248253-26.896243 26.414567-46.762695 52.716743-57.651245C529.60659 10.913526 541.110614 8.95917 553.041903 8.958278c25.591258-0.000892 45.982202 8.723684 66.166203 28.309159 14.839184 14.398539 21.317723 24.233646 85.702618 130.105102 53.969993 88.744312 54.899449 90.320462 55.546143 94.147109 0.766221 4.532213-0.433508 5.993296-3.551021 4.324379-2.56537-1.373668-90.80749-93.090098-145.082544-150.794863-43.112663-45.836807-45.439871-47.710883-59.227395-47.678771-8.898515 0.020516-14.105966 2.461899-20.745957 9.727176-5.750674 6.293006-7.738033 11.861713-7.149318 20.033254 0.602095 8.342804 3.636653 13.694757 13.87494 24.46378 4.752535 4.999617 36.887449 38.551014 71.411118 74.558959 34.522777 36.008836 65.20196 68.521955 68.17497 72.251375 8.504254 10.667336 15.541181 21.868083 21.633488 34.433578 37.277249 76.887058 14.851671 169.527593-53.367898 220.461243-11.491537 8.580966-17.341222 12.04368-41.986076 24.857149L583.815636 558.882222 583.36964 790.481773c-0.245298 127.380065-0.733218 231.887665-1.084662 232.23911-0.351445 0.351445-14.082774-12.96154-30.514164-29.584708zM426.824995 573.562631c85.395773-43.777197 90.56576-46.533453 92.72349-49.422616 1.789337-2.395891 1.833044-3.609001 2.094398-58.264936 0.156991-32.714709-0.068683-56.156266-0.544116-56.631698-1.675161-1.675161-30.786222 23.537892-53.704179 46.51383-33.269528 33.353375-59.834842 67.481892-84.766026 108.903337-11.872417 19.722841-23.932153 43.279465-21.737852 42.462401 0.941052-0.350553 30.611391-15.452874 65.934285-33.560318z" fill="#EEC3CB" p-id="6015"></path><path d="M576.896452 1018.491056c-2.686681-2.604617-16.177172-16.214636-29.97986-30.247458l-25.094419-25.51098v-185.222196C521.822173 612.977986 521.671426 592.290009 520.476157 592.290009 519.217556 592.290009 445.096565 629.622562 338.963756 683.712974 276.848982 715.36978 260.378344 723.626952 260.071499 723.270155c-0.603879-0.704674 1.768821-13.007923 5.476832-28.401034 14.51093-60.245159 45.879623-130.003415 84.434205-187.764375 49.293277-73.850717 116.065143-137.687928 193.370547-184.871643C558.527655 312.971547 579.732988 301.500526 581.681991 301.500526c1.644834 0 1.687649 2.389647 1.687649 94.94455 0 63.310936 0.301493 95.130977 0.906264 95.504722 0.497732 0.307737 4.761455-1.470003 9.474742-3.951526 40.542833-21.343591 65.407118-61.936376 65.432986-106.823212 0.016056-27.852459-9.044802-53.433905-26.755308-75.536582-6.21005-7.750521-13.454812-15.443062-68.159806-72.375361-69.917923-72.765162-71.647496-74.611586-79.173235-84.496645-7.054767-9.2678-13.379884-21.370351-16.442986-31.462351-2.185381-7.201054-2.442275-9.45155-2.497578-21.853811-0.074927-16.6419 1.569906-24.07398 8.391863-37.909672a87.618618 87.618618 0 0 1 38.107694-38.971143C526.041296 11.594116 537.271479 8.924383 553.213165 8.929735c31.825393 0.010704 59.032049 15.577753 81.84386 46.826918 9.52737 13.051631 45.161569 70.739448 112.694304 182.437397 12.478972 20.640701 15.135325 26.911407 11.925045 28.143249-2.631377 1.009735 3.061318 6.728298-85.820361-86.208378-25.537739-26.704465-55.093903-57.785044-65.679176-69.068746C570.032572 70.398707 566.261228 67.411424 553.041903 67.373961c-8.966306-0.024976-13.704569 1.86694-20.000251 7.985115-5.425989 5.273458-7.827232 10.343542-8.34994 17.626659-0.507544 7.065471 0.767113 12.342497 4.252127 17.607036 1.369208 2.06853 22.906362 25.061415 47.858954 51.095101 24.952592 26.033687 56.563014 59.009749 70.245284 73.279842 13.683162 14.271876 27.250364 28.849706 30.149339 32.398052 18.168099 22.231124 30.746082 48.772354 36.890125 77.842382 1.954355 9.248176 2.436923 14.305772 2.829399 29.654283 0.303277 11.866173 0.089199 21.625461-0.595851 27.205765-4.892578 39.842619-22.642332 76.332239-50.883699 104.60661-16.250315 16.269939-28.769427 24.618987-66.011889 44.029631l-15.609865 8.135862-0.445996 231.620959c-0.245298 127.390769-0.703782 231.877853-1.017763 232.192726-0.314873 0.313981-2.769636-1.559203-5.456317-4.162928zM416.35925 579.200914C498.245925 537.186294 514.81379 528.467961 518.254204 525.57969l3.121973-2.620673 0.242622-56.476491c0.136475-31.776333-0.100795-56.819908-0.544116-57.262336-0.907156-0.908048-9.6799 5.881797-25.421779 19.675565-44.774444 39.232496-82.563697 84.54838-113.197389 135.742493C375.646938 576.01561 359.479578 605.707357 359.479578 606.832159c0 0.341633 0.408532 0.621719 0.907156 0.621719s25.686702-12.713566 55.972516-28.252964z" fill="#ECBBC4" p-id="6016"></path><path d="M551.841281 992.723183L521.822173 962.217047V777.403383c0-101.648764-0.267598-185.082154-0.593175-185.408623-0.613691-0.612799-55.671914 27.039854-185.683357 93.257792C294.173256 706.322302 260.181214 723.421794 260.007275 723.248747c-0.636882-0.63599 4.952341-26.533202 8.530122-39.529529 22.146384-80.428268 65.514157-162.720799 120.338679-228.350024 37.195186-44.523795 84.309326-86.782821 132.500101-118.846375 24.856257-16.537537 58.22212-35.633308 60.641203-34.705636 1.197054 0.459376 1.35226 11.452289 1.35226 95.544861 0 76.178817 0.224782 95.024829 1.131938 95.02483 1.823232 0 13.966815-6.362581 20.729009-10.860898 28.068321-18.671182 46.727908-47.289863 52.556185-80.60845 1.807176-10.334623 1.810744-29.676583 0.007136-40.099513-1.892808-10.941177-6.691726-24.945456-12.076683-35.241723-9.111701-17.424177-12.896424-21.671844-95.751804-107.477042-58.973178-61.072035-68.401536-71.916877-75.832723-87.225249-6.047708-12.461132-8.017227-21.597809-7.923568-36.761678 0.091875-14.905191 1.778633-22.379194 7.941408-35.183743 5.268998-10.947421 10.148196-17.681071 18.796953-25.94092C509.560847 17.1209 529.977658 8.937763 552.969651 8.930627c24.314818-0.00892 46.193604 9.297236 65.92715 28.043345 13.113178 12.45578 22.803783 27.154029 81.780528 124.03777 60.694723 99.706897 61.757085 101.566701 59.788458 104.751113-0.991895 1.604694-2.147025 1.095367-6.44286-2.840995-5.641851-5.169987-114.844898-119.188008-148.238413-154.773148-28.802431-30.693454-35.280971-36.676939-42.741594-39.474226-14.485955-5.431341-29.838034 1.266629-36.593983 15.964877-4.727559 10.288239-2.447627 21.209792 6.551683 31.374045 2.365564 2.672409 34.69404 36.569007 71.840166 75.326072s69.537934 72.875769 71.981993 75.819343c16.502749 19.878048 29.76043 46.826027 35.924097 73.022056 8.174217 34.736855 5.089708 73.9417-8.451627 107.432442-9.405167 23.260483-20.672813 40.101297-39.2432 58.653845-17.962941 17.945993-28.413522 25.056955-62.730249 42.684506L583.36964 558.686876l-0.01338 231.102711c-0.007136 127.106224-0.347877 231.628095-0.754625 232.27033-0.528059 0.833121-9.342727-7.573014-30.760354-29.337626zM461.166698 556.39624c53.318838-27.464442 57.347968-29.697099 59.169416-32.780717 1.344232-2.27458 1.486059-7.876292 1.486059-58.795671 0-44.708437-0.231918-56.281145-1.125694-56.281144-0.619043 0-7.542687 5.371578-15.386867 11.93664-50.074663 41.914717-90.983212 90.035025-124.33748 146.25819-8.250929 13.908836-21.492554 38.948843-21.492554 40.642736 0 1.102502 21.579969-9.716472 101.68712-50.980034z" fill="#E7A8B4" p-id="6017"></path><path d="M551.926912 992.543892l-30.104739-30.818333V776.561342C521.822173 651.668151 521.526924 591.398017 520.915017 591.398017c-0.918752 0-76.747016 38.3075-193.969965 97.989811-35.310406 17.978104-64.772911 32.827992-65.472233 33.001039-1.688541 0.417452-1.043631-4.211988 3.035449-21.771748C277.005972 646.806793 302.707838 585.158531 334.962278 531.616694c53.866522-89.413306 130.690249-164.406665 222.409355-217.109136C568.641956 308.033478 581.014781 301.500526 582.010244 301.500526c0.257786 0 0.468296 42.31433 0.468296 94.032042 0 51.717712 0.243514 94.667141 0.541439 95.443174 0.792981 2.066746 2.351292 1.770605 9.515774-1.808068 33.47647-16.719503 57.036662-47.665391 64.992341-85.366337 2.699169-12.788493 2.699169-33.038502 0-45.826996-3.460038-16.39571-8.705845-29.194015-17.482156-42.647935-7.645266-11.720779-10.458609-14.784772-79.866313-86.969247-77.22334-80.312309-77.924445-81.112426-86.068335-98.305577-5.74443-12.124851-7.860236-21.748556-7.804932-35.493265 0.090983-23.002697 8.592562-43.287493 25.014139-59.687663C507.785782 18.426776 526.630011 10.106273 549.473934 9.19644c22.872466-0.911616 43.002948 6.258218 63.133429 22.487126 16.254775 13.104259 22.583461 22.347083 81.528094 119.070265 51.784612 84.972968 65.294727 107.626004 66.116252 110.862152 2.610861 10.281103-1.547607 6.468728-63.266336-58.008041C621.329264 124.572074 625.992599 129.468219 604.16198 106.154217c-26.502875-28.302915-31.853936-33.321264-39.195924-36.763462-11.943777-5.599928-23.711831-3.278964-32.83602 6.475864-6.004 6.418776-8.040418 11.381821-8.036851 19.583691 0.00446 9.759288 2.626025 14.563558 15.014014 27.522422 5.460777 5.713211 37.222838 38.852508 70.580673 73.642882 33.358727 34.790375 63.199437 66.300002 66.313382 70.021394 27.672276 33.071506 42.562304 76.800535 40.875547 120.048781-1.867832 47.894633-21.28026 91.141095-55.322254 123.242113-14.909651 14.05869-28.429578 22.875142-59.898173 39.056774-9.321319 4.792675-17.34925 9.092077-17.839846 9.553237-0.588715 0.552143-1.043631 79.901992-1.337988 232.831393l-0.445996 231.99292zM417.264622 579.19021c87.322476-44.795852 98.535711-50.704409 101.658576-53.566812l2.898975-2.656353V465.751984c0-49.454728-0.175722-57.213277-1.296957-57.213276-1.773281 0-21.138433 16.141492-38.275388 31.903887-47.072217 43.297305-90.507781 101.148356-120.190608 160.076935-3.803455 7.553391-3.892654 7.825448-2.551098 7.825448 0.50576 0 26.496631-13.120314 57.7565-29.15566z" fill="#E297A4" p-id="6018"></path><path d="M552.372909 992.781162L522.714165 962.637175V777.435494c0-162.23288-0.163235-185.26412-1.313012-185.705656-1.325501-0.508436-48.171151 22.949177-185.864431 93.066906C294.648687 705.617628 260.976871 722.43525 260.709273 722.168545c-1.165834-1.165834 6.642666-34.140112 12.695726-53.613196 24.485188-78.767378 67.080495-156.048697 120.452854-218.538108 14.270984-16.707907 50.308365-52.797023 66.861957-66.957401 24.796493-21.211576 50.003303-39.750744 76.26534-56.094718 18.391989-11.446045 43.714758-25.564499 44.728953-24.939212 0.419236 0.25957 0.762653 42.97262 0.762653 94.91779 0 63.50093 0.299709 94.631461 0.9134 95.010558 1.684081 1.040063 5.961184-0.522707 13.926675-5.087924 31.612206-18.119039 52.658764-46.758235 60.184504-81.894704 1.62075-7.565879 2.006091-12.193534 2.00609-24.083791 0-22.017937-3.366379-35.927665-13.402184-55.373097-8.805748-17.06292-10.083081-18.515976-81.454059-92.697621-72.417285-75.268984-77.660416-81.023227-85.738298-94.097158-9.300803-15.055046-12.884828-28.989749-12.141798-47.211367 0.556603-13.663538 2.085478-20.227709 7.314336-31.401696 7.416916-15.850703 17.351034-27.488526 31.130531-36.470889 36.26127-23.636011 79.875233-18.388421 113.062697 13.603775 9.059074 8.732604 17.454505 19.534631 27.532234 35.422797C666.535432 105.335368 756.67036 253.547021 759.212538 259.130893c3.951526 8.679085 0.417452 8.973442-8.068962 0.668994-5.298434-5.184259-43.882452-45.423815-107.554645-112.168029-9.360567-9.811915-25.490463-26.871267-35.843818-37.909672-37.503815-39.983554-41.513321-43.151018-54.70321-43.224162-8.088586-0.0446-14.751768 2.671517-20.394512 8.315152-11.07676 11.07676-11.855469 26.815964-1.937407 39.147758 1.873184 2.328992 19.782605 21.294532 39.79802 42.144851 20.016307 20.85032 51.038014 53.16274 68.938515 71.805378s34.950041 36.906181 37.888264 40.585649c20.029687 25.083715 32.868131 54.29557 37.770521 85.939888 2.321856 14.987254 2.069422 40.348379-0.553035 55.440888-8.955602 51.558046-38.17727 94.930278-82.434359 122.356365-4.489397 2.783016-16.39125 9.269584-26.448463 14.417271-10.057213 5.146795-19.389236 10.122328-20.737036 11.056244l-2.451195 1.697462-0.224782 231.761001-0.224782 231.759218zM424.031275 575.928195c79.75749-40.89517 92.425564-47.577084 95.06497-50.142454 1.58061-1.536903 2.355752-3.535857 2.823155-7.278657 0.780493-6.247514 0.992787-106.014174 0.231918-108.852494-0.294357-1.104286-0.875936-2.006983-1.290713-2.006983-0.413884 0-5.485753 3.873922-11.268538 8.608618C456.294636 459.891595 411.197291 513.161374 376.953707 572.933777c-7.974411 13.923107-18.366121 33.754772-18.366121 35.055296 0 1.337988 6.868341-2.025714 65.443689-32.060878z" fill="#E08E9D" p-id="6019"></path><path d="M552.595907 992.99078l-29.435746-29.687287-0.445996-185.717252c-0.401397-167.038934-0.585147-185.744904-1.833044-185.98485-1.345124-0.258678-54.852173 26.61705-191.283284 96.080948-36.304086 18.483864-66.709427 33.871623-67.568415 34.194524-2.015903 0.759085-1.994495-0.087415 0.258678-10.292699C279.374212 634.191346 315.671161 554.777274 365.124105 486.588924c40.576729-55.94754 96.096112-109.170935 154.956899-148.543474 21.654897-14.485955 57.925979-35.652931 61.092551-35.652932 1.136398 0 1.304093 12.217618 1.304093 94.901735 0 80.943839 0.185534 94.973094 1.260385 95.385194 1.610046 0.618151 12.131095-4.41447 20.420379-9.766423 36.346901-23.468317 57.571858-64.273396 55.619287-106.931143-1.105178-24.133743-8.463223-45.56921-22.252532-64.82643-6.481216-9.049262-15.799859-19.181402-57.649461-62.680298-16.965693-17.633795-36.668019-38.118398-43.781657-45.521042-44.371264-46.173088-54.524812-58.014286-60.828521-70.932118-6.98876-14.324504-9.22766-25.287981-8.468575-41.477641 0.990111-21.122377 8.708521-38.79542 23.708263-54.283974 8.49801-8.774528 15.445738-13.782173 26.097018-18.809441C530.122161 11.069624 537.708555 9.430142 553.487899 9.480094c11.888473 0.037464 14.274552 0.310413 21.407815 2.450303 16.492937 4.949665 30.317034 12.97046 42.931588 24.910668 13.377208 12.663614 20.516714 23.218559 65.89147 97.410909 37.889156 61.95154 74.741817 123.053903 75.924598 125.885086 2.741984 6.563279 0.249758 7.601558-5.607063 2.33702-4.426066-3.98007-100.081534-103.890341-137.203576-143.30748-47.609196-50.554554-50.261981-52.729232-64.236824-52.678388-8.621105 0.03122-13.928459 2.252281-20.108182 8.417732-6.344741 6.330469-8.440031 11.444261-8.414164 20.544366 0.01784 6.540087 0.363041 8.236657 2.510959 12.349633 3.088077 5.913909 0.249758 2.859727 78.061812 83.985533 35.52716 37.039979 67.308845 70.556589 70.625273 74.481355 29.13782 34.477286 44.718249 82.561913 41.070892 126.755671-4.415362 53.513293-28.929986 98.410832-71.073945 130.172893-9.327563 7.030683-19.894104 13.240733-41.525808 24.404909-10.625412 5.483969-19.757629 10.496965-20.291041 11.140983-0.693078 0.834905-1.034711 67.376637-1.195269 232.552199l-0.224782 231.382797zM411.821685 582.331807c88.635489-45.452359 103.182099-53.116356 106.878515-56.30612l3.567969-3.079158 0.27295-55.605014c0.150747-30.582847 0.042816-56.525551-0.239946-57.649461-0.28187-1.124802-0.945512-2.045338-1.474463-2.045339-1.287145 0-17.260051 13.161346-31.562255 26.008711-49.955136 44.871672-90.10014 96.546568-123.002167 158.326846C359.53399 604.617342 357.581419 609.237862 358.971143 609.237862c0.211402 0 23.994592-12.107011 52.850542-26.905163z" fill="#DD8595" p-id="6020"></path><path d="M552.372909 992.543l-29.658744-30.408016V776.82002c0-123.255493-0.300601-185.50139-0.896452-185.869783-0.809037-0.499516-75.806856 37.204106-211.843706 106.50031-26.982766 13.745601-49.188914 24.621663-49.346797 24.170314-0.457592-1.310337 5.78011-27.68744 10.217771-43.203646C293.266099 600.020014 336.250315 519.33842 389.440707 455.81519c44.658485-53.334894 98.874668-99.56953 158.695238-135.33396C563.247186 311.44624 579.925658 302.392518 581.456317 302.392518c0.760869 0 1.021331 24.25327 1.021331 95.02483 0 81.652973 0.180182 95.095297 1.277333 95.515425 0.70289 0.270274 4.514373-1.14175 8.470359-3.135353 34.311375-17.301082 57.381863-47.123952 65.621196-84.82579 2.198761-10.060781 2.718792-31.552443 1.015979-41.934341-3.737448-22.782375-13.326365-43.696026-27.806968-60.644771-5.81579-6.806793-27.025582-29.166364-66.423989-70.021393-77.498965-80.365828-82.107889-85.600931-90.112628-102.347195-4.695447-9.821727-7.146642-19.647914-7.734465-31.005651-0.594067-11.476373 0.635099-19.958327 4.558081-31.453432 4.151332-12.161423 10.115192-21.695036 19.705893-31.502491 11.803734-12.068656 23.385362-19.004787 40.332323-24.154259C538.264267 9.816375 540.785929 9.520234 552.14991 9.470282c11.347926-0.049952 13.973059 0.231918 21.407815 2.295988 16.459042 4.570568 31.24649 12.93032 44.097422 24.932076C630.240266 48.452129 638.65889 60.914153 683.254936 133.805978c31.458784 51.419787 75.367104 124.236685 76.536505 126.927825 2.593022 5.964752 0.245298 6.737218-5.298434 1.742061-4.997833-4.502777-113.170628-117.468247-146.76841-153.271033-29.614144-31.557795-35.034781-36.742946-42.040488-40.218148-10.521941-5.218155-23.204287-3.368163-32.171485 4.694555-12.378177 11.128496-13.344204 28.386762-2.311152 41.311731 2.213033 2.593022 34.687796 36.687642 72.163959 75.76404 37.477056 39.078182 70.451334 73.859637 73.275382 77.293807 20.081422 24.412937 33.841295 56.138426 38.342288 88.401786 1.801824 12.91248 1.377236 42.997596-0.767113 54.316978-8.440923 44.57999-29.896905 80.86802-64.071806 108.364574-11.396093 9.169681-21.173221 15.119269-45.812723 27.878327-11.283702 5.842549-20.815532 10.913526-21.181249 11.266754-0.365717 0.354121-0.670778 105.088286-0.67613 232.743086-0.005352 127.654799-0.107039 232.060711-0.225674 232.014327-0.119527-0.047276-13.562743-13.769685-29.875497-30.493648zM419.159214 578.776326c63.53661-32.582694 93.257793-48.020404 98.082579-50.945247 5.583872-3.385111 5.472373-2.094398 5.472372-63.540178 0-48.998028-0.165019-55.869936-1.349584-56.32396-2.436031-0.934808-31.481083 23.84563-52.788103 45.03669-41.843358 41.618576-75.951359 88.117241-103.859121 141.591286-6.152963 11.790354-7.204622 14.643837-5.396553 14.643837 0.240838 0 27.167409-13.708137 59.83841-30.461536z" fill="#D97587" p-id="6021"></path><path d="M551.400637 991.102433L522.714165 961.705935V776.105534C522.714165 619.046209 522.525063 590.506024 521.485 590.506024c-1.17297 0-52.301967 25.738437-173.155325 87.165486-30.416937 15.46001-62.685649 31.928864-71.709043 36.597551-14.855239 7.685405-16.362706 8.286608-15.953282 6.362581C275.60376 650.416686 302.072739 585.393125 341.345375 522.438094c44.884159-71.950773 107.339675-136.102858 179.737336-184.620994 22.244503-14.907867 58.801023-36.031136 60.518109-34.969666 0.565523 0.348769 0.876828 34.115137 0.876828 95.068538 0 87.582046 0.109715 94.568129 1.494087 95.098864 1.819664 0.69843 13.070363-4.938961 23.005373-11.527216 9.168789-6.079819 22.262343-18.615879 29.55884-28.298455 10.493397-13.926675 19.064551-33.981338 22.103569-51.720388 1.877644-10.953665 1.877644-30.209103 0-41.16366-3.074697-17.947777-11.016105-36.342441-22.010802-50.988955-7.273305-9.689712-15.785587-18.811225-75.55353-80.959895-52.137841-54.214399-59.790242-62.282469-68.365856-72.08814-12.937456-14.789232-20.310664-28.128085-24.132851-43.659454-2.254064-9.158085-2.031066-27.031826 0.463836-37.119366 6.098551-24.656451 22.837678-45.339968 46.091917-56.951031 5.646311-2.818696 8.738848-3.942606 21.853811-7.9423 2.599266-0.792089 8.258065-1.205974 16.055861-1.173862 14.676841 0.061547 23.660987 2.320964 38.801664 9.759288 16.586596 8.148349 29.233263 19.18943 41.914717 36.591307C643.189318 68.712841 664.150245 102.523809 728.592227 208.733329 754.362776 251.210001 760.876104 262.532059 760.876104 264.853915c0 2.535934-4.484045-0.644018-12.955296-9.186628-15.051478-15.179033-108.328002-112.764772-136.544394-142.852564-29.97986-31.969003-38.781148-40.523209-45.100022-43.833392-4.232503-2.217493-5.699831-2.495794-13.234489-2.50739-10.284671-0.016056-14.624213 1.81788-21.496122 9.083157-6.076251 6.42502-8.277688 11.579844-8.30534 19.447216-0.033896 9.580889 3.266476 15.782911 14.811531 27.832835 5.074544 5.29665 36.357605 37.929296 69.517419 72.516296s62.655322 65.62298 65.544484 68.968843c20.968062 24.279138 35.074028 53.919149 40.616869 85.345821 2.326316 13.188998 3.120189 35.79565 1.726005 49.150559-4.44569 42.589955-24.542276 83.126544-55.242866 111.430351-15.368135 14.167513-25.796417 20.952899-57.540638 37.441376L582.923644 557.948306l-0.445996 230.951965c-0.319333 165.409264-0.722514 231.04384-1.418268 231.275758-0.533411 0.178398-13.8794-12.905344-29.658743-29.073596zM373.087812 602.646931c6.98876-3.625057 36.790222-18.942348 66.225967-34.038425 68.872508-35.32111 78.027025-40.1789 80.725301-42.842389l2.229981-2.199653v-57.724388c0-53.053917-0.119527-57.74758-1.479815-58.008934-0.858097-0.165019-7.036927 4.352922-14.717873 10.762779-50.304797 41.979833-90.510457 88.887031-124.049366 144.725747-8.881567 14.789232-24.325521 43.288385-24.325521 44.891295 0 1.978439 2.795504 0.967812 15.391326-5.566032z" fill="#D5667A" p-id="6022"></path><path d="M551.926912 991.220176L522.714165 961.958369V776.232197C522.714165 604.602178 522.602666 590.506024 521.249514 590.506024c-0.805469 0-22.179388 10.491613-47.498589 23.314003C388.024223 657.235967 266.282441 719.153611 263.256803 720.87694L260.247221 722.592241l0.484352-2.042662c0.265814-1.123018 1.695677-7.262601 3.177277-13.643914C282.406093 627.229347 320.077603 547.463829 371.467954 479.158628c52.104837-69.255173 124.663057-131.42525 200.528785-171.818228l9.588917-5.105764V396.346065c0 51.760528 0.243514 94.745636 0.541439 95.521669 0.864341 2.251389 3.863219 1.66535 11.440693-2.236224 34.436254-17.731915 57.957198-49.224594 65.226935-87.335856 2.34594-12.297898 2.179137-32.287445-0.368393-44.321313-3.807915-17.979888-11.396985-35.220315-21.442602-48.706346-6.466944-8.682653-16.522373-19.472191-69.169541-74.220894-72.5716-75.467007-78.272322-81.632457-85.965756-92.975031-22.870682-33.715524-19.018167-76.595377 9.50507-105.796528C502.580116 24.781329 517.793936 15.782911 531.634088 12.449536c2.698277-0.650262 5.380497-1.534227 5.960292-1.965059C539.230294 9.269584 557.373417 8.655001 562.853818 9.629057c20.734361 3.686604 39.625865 13.321905 54.932452 28.017477 15.138893 14.532338 20.799476 23.273863 106.660869 164.682291 18.564143 30.573927 33.752988 55.801253 33.752988 56.060822s0.654722 1.850884 1.453947 3.537642c3.731204 7.861128-2.79818 3.024746-19.481111-14.432435-7.992251-8.361536-36.025784-37.663482-62.296741-65.115437-26.272741-27.451062-56.839532-59.544945-67.926996-71.319242-23.735023-25.205918-37.393208-38.703545-41.816598-41.326895-4.851546-2.876675-13.733113-4.879198-18.557899-4.183443-10.033129 1.447703-19.603314 8.668381-24.026704 18.129743-3.327131 7.116314-3.357459 16.36449-0.074036 23.379117 2.838319 6.067331 2.081018 5.246699 75.716765 82.050802 69.040202 72.010537 72.358414 75.533906 77.81473 82.630597 25.3861 33.017094 38.676785 74.510791 36.960592 115.391689-2.499362 59.494993-31.593475 110.369773-81.752876 142.957818-4.170064 2.708981-17.010293 9.809239-28.533049 15.77756-11.523648 5.967428-21.657573 11.490645-22.521021 12.27203-1.489627 1.3478-1.581502 13.205946-1.794688 231.882312l-0.224782 230.461369zM419.243061 579.186642c89.614896-45.940278 97.369877-50.058607 100.578373-53.417849l2.906111-3.041694-0.230134-57.687816c-0.167695-42.213535-0.502192-57.7788-1.246113-58.026774-0.559279-0.187318-5.965644 3.715148-12.013352 8.670165-59.858034 49.047087-108.41185 108.856062-144.518805 178.020251-7.191242 13.775037-8.328532 17.113764-5.462561 16.027317 0.858989-0.325577 27.852459-14.070286 59.986481-30.5436z" fill="#D25B70" p-id="6023"></path><path d="M552.372909 991.666172L523.606158 962.850361V777.958202c0-128.806361-0.287222-185.430031-0.947296-186.663656-0.890208-1.662674-4.512589 0.030328-59.540485 27.831943-32.226789 16.280643-90.392714 45.803804-129.258601 65.606032C294.992104 704.535641 262.814375 720.736897 262.350539 720.736897s-1.043631 0.502192-1.291605 1.11499c-0.266706 0.661858-0.478108 0.475432-0.520031-0.458484-0.038356-0.865233 0.308629-2.27012 0.772465-3.121973 0.463836-0.851853 1.913323-6.565955 3.221876-12.698402 7.957463-37.303117 24.407585-83.106921 44.849372-124.878919 56.250817-114.952829 143.827511-206.944885 257.163158-270.130049 7.18143-4.003261 13.503871-7.279549 14.048878-7.279549 0.72073 0 0.991003 25.793741 0.991004 94.519962 0 109.219995-1.127478 98.426888 9.737879 93.220329 35.037457-16.791755 59.729587-49.097931 67.559496-88.395543 2.34594-11.769838 2.131862-33.518394-0.446889-45.587942-4.402874-20.59967-14.289716-40.510721-27.801615-55.986787-6.138691-7.030683-26.666109-28.621356-68.267737-71.805378-73.625043-76.424114-79.508624-83.089081-86.913052-98.465244-5.246699-10.895686-7.231381-18.926292-7.796012-31.552443-0.743922-16.65082 1.685865-28.286859 8.891379-42.583711 5.687343-11.281918 17.037053-24.205994 27.707956-31.547091 6.324225-4.351138 19.419564-10.413118 26.16035-12.108795 3.367271-0.847393 6.774681-1.88032 7.573014-2.295097C540.446972 9.418546 555.86595 8.754012 561.515829 9.682576c21.092941 3.467174 40.257396 12.93032 55.804821 27.556318 13.674242 12.864313 23.190015 27.319048 86.467056 131.354783C756.871058 255.867093 760.876104 262.636423 760.876104 265.067994c0 1.024899-2.79372-0.171263-5.36801-2.297773-3.407411-2.814236-104.871532-108.660715-143.292315-149.480066-41.478533-44.067987-45.989338-47.703747-59.192608-47.715343-5.78903-0.005352-7.525739 0.396045-12.663614 2.925735-6.589147 3.243284-11.865281 8.540826-15.150489 15.208468-1.654646 3.359243-2.04623 5.617767-2.036419 11.741295 0.010704 6.549899 0.350553 8.226845 2.494903 12.318413 3.169249 6.046816 1.678729 4.43677 72.844549 78.664799 73.562603 76.727392 75.273444 78.550624 81.541474 86.879156 49.347689 65.567676 47.720695 156.402818-3.933686 219.520192-6.310845 7.712165-19.017275 20.234845-26.74282 26.35748-11.756458 9.316859-26.108614 17.827358-53.073541 31.472163-6.377745 3.227228-12.197994 6.27249-12.933888 6.767546-1.18189 0.793873-1.389724 27.901518-1.783984 231.975972l-0.445996 231.076843zM418.402804 579.746814c85.348497-43.754897 98.978139-50.943463 101.65144-53.617656 3.373515-3.373515 3.538533-6.410749 3.54567-65.460638 0.005352-41.086948-0.222998-51.210169-1.18635-52.526749-0.656506-0.897344-1.637698-1.476247-2.180921-1.286253-3.111269 1.090015-32.691517 27.053234-48.664423 42.715726-26.480575 25.965895-44.988523 47.495913-65.1752 75.819344-16.238719 22.783267-32.266037 49.205862-43.681754 72.013213-4.806054 9.601405-5.860389 12.726054-4.294943 12.726054 0.396045 0 27.389515-13.672458 59.986481-30.383041z" fill="#D0556B" p-id="6024"></path><path d="M551.780626 990.835727L523.606158 962.117144V777.27672c0-101.662144-0.243514-185.475522-0.54144-186.251556-0.297925-0.776033-0.914292-1.411132-1.369208-1.411132-0.797441 0-60.260322 30.036056-195.665642 98.836313-35.322894 17.946885-64.517802 33.05545-64.879059 33.574589-0.392477 0.564631-0.660074 0.338957-0.668994-0.566415-0.007136-0.829553 0.341633-1.727789 0.776033-1.996279 0.433508-0.267598 1.072175-2.399459 1.418268-4.735587C265.05952 698.651168 278.148614 654.988146 288.551028 628.415696 319.866201 548.425397 366.049993 477.272957 425.487007 417.447926c37.936432-38.182621 78.906529-70.217632 123.986927-96.944396C561.853002 313.164217 579.937254 303.284511 580.991589 303.284511c0.326469 0 0.594067 42.498972 0.594067 94.442358 0 84.036377 0.151639 94.567237 1.376344 95.584109 2.014119 1.671594 17.690883-6.354553 28.888062-14.789232 55.250002-41.62036 65.335758-119.648276 22.396142-173.276636-6.03522-7.537335-21.103645-23.527188-67.833337-71.981993-76.732744-79.565711-82.480742-86.038899-90.285674-101.68712-6.135123-12.302358-8.723684-23.289918-8.704953-36.958808 0.043708-31.656806 18.528464-60.965888 47.709991-75.651649C520.807086 16.110273 534.167346 11.603036 536.957498 11.603036c0.915184 0 1.823232-0.479 2.018578-1.065039 0.475432-1.425404 24.513732-1.572582 27.533126-0.167695 1.17743 0.547683 5.340358 1.88032 9.24996 2.961415 21.861839 6.043248 41.754159 20.833372 57.760068 42.943184 7.779957 10.746723 28.22442 43.489976 68.182106 109.196803 52.119109 85.705294 56.809204 93.544122 57.203465 95.6073 0.217646 1.136398 0.749274 2.065854 1.183673 2.065854 0.432616 0 0.755517 0.70289 0.717162 1.560987-0.042816 0.941944-0.249758 1.116774-0.521815 0.440644-0.248866-0.616367-0.849177-0.875936-1.333529-0.575335s-1.910647-0.401397-3.166572-1.555635c-4.311891-3.964906-119.42617-124.304476-146.218943-152.856257-30.739838-32.759308-36.562764-38.33872-43.749545-41.923637-4.474233-2.230873-6.238594-2.593914-12.773329-2.627809-6.520464-0.033896-8.283932 0.305953-12.599391 2.424435-5.665043 2.783016-12.120391 9.199116-15.117485 15.026502-1.38348 2.691141-2.13543 6.012028-2.39946 10.607572-0.47008 8.148349 1.574366 14.387835 6.772006 20.671921 1.896376 2.29242 34.176684 36.211319 71.734019 75.373348 37.555551 39.162029 70.808131 74.213758 73.89264 77.893226 28.530373 34.031289 43.650534 81.482603 40.077213 125.770911-3.564401 44.171458-21.889491 83.855302-52.338539 113.339215-16.283319 15.767748-26.645593 22.791295-56.501467 38.29858-11.529 5.987944-21.865407 11.457641-22.968801 12.154287l-2.006982 1.267521v230.559488c0 138.591516-0.324685 230.559488-0.815281 230.559488-0.44778 0-13.493167-12.923184-28.989749-28.718583z m-134.49638-410.307528c78.515836-40.275235 99.164566-51.090642 102.183067-53.521321 1.917783-1.543147 2.756256-3.204036 3.302156-6.525815 0.838473-5.115576 1.11499-110.178886 0.295249-112.314316-0.923212-2.405703-3.04437-1.596666-9.617461 3.67144C454.310845 459.222601 404.841846 518.697078 368.172043 586.492059c-11.359522 21.00285-12.416533 23.637795-9.483662 23.637796 0.488812 0 26.856996-13.321013 58.595865-29.601656z" fill="#CE4B62" p-id="6025"></path><path d="M551.926912 990.615405L523.606158 961.756779V776.102858c0-162.552213-0.163235-185.71636-1.311229-186.157005-1.307661-0.5013-52.220796 24.984704-186.899142 93.557502-38.511767 19.607774-70.781371 36.052544-71.710828 36.542248-1.582394 0.834013-1.65197 0.610123-1.098934-3.559049 0.324685-2.446735 2.003415-10.218664 3.731204-17.270755C289.177207 605.892891 338.651559 513.054335 404.584952 439.759329c11.642283-12.941024 38.776688-39.850647 51.675788-51.244956 20.393619-18.017352 47.113248-38.34318 70.467391-53.60606C543.408386 324.005491 578.97301 303.284511 581.003185 303.284511c0.315765 0 0.67613 42.843281 0.801009 95.207688 0.260462 108.867658-0.842933 97.808737 9.281179 93.070474 23.6039-11.04554 47.841114-35.372846 58.445119-58.662764 8.37224-18.388421 10.974181-30.721998 10.974181-52.01207 0-23.060676-3.040802-35.907149-13.192566-55.73703-8.663029-16.921094-11.51116-20.163485-82.654681-94.117673-48.423585-50.336908-62.13975-64.747044-70.043694-73.589363-12.929428-14.464547-20.74774-27.891707-24.672506-42.369633-2.844563-10.495181-2.846347-29.964697-0.00446-40.585649 2.640297-9.863651 9.859191-24.079332 16.283319-32.065338 11.859037-14.742848 30.522192-26.443111 47.903553-30.03338 2.989958-0.617259 5.266322-1.39686 5.057597-1.733141-0.206942-0.335389 2.863295-0.892884 6.823741-1.238086 8.049338-0.70289 20.656757 0.181966 19.906591 1.395968-0.267598 0.433508 0.51914 0.788521 1.749197 0.788522 3.554589 0 16.428714 4.321703 23.856334 8.009198 15.295884 7.591746 29.144064 19.704109 41.327786 36.144419 7.846856 10.58884 27.98269 42.833469 74.086203 118.634973C751.668959 247.947986 759.092119 260.533997 759.092119 262.828201c0 3.992557 5.537488 9.539857-87.781852-87.939735-18.108335-18.91648-44.042119-46.233744-57.631621-60.706318-43.817337-46.667252-46.271207-48.620715-61.082739-48.60466-6.968244 0.006244-8.627349 0.322901-12.564604 2.393216-5.681991 2.988174-12.202454 9.531829-14.847211 14.898947-1.676945 3.403843-2.021255 5.557112-2.010551 12.580659 0.011596 7.515927 0.292573 9.007338 2.484199 13.188998 2.837427 5.414393-0.260462 2.09083 79.567495 85.376149 33.386379 34.832298 62.515279 65.338434 64.73188 67.791413 23.797462 26.334288 38.683921 58.259584 44.088502 94.551181 1.757225 11.801058 1.729573 35.941045-0.056195 48.745594-6.876368 49.298629-34.16598 93.436191-74.870264 121.094196-9.883274 6.716702-22.406846 13.762549-40.585649 22.835894-6.623043 3.305723-13.14529 6.791629-14.494875 7.746061l-2.452978 1.735817v230.519349c0 126.785999-0.300601 230.501509-0.668995 230.479209-0.367501-0.0223-13.412888-13.026655-28.989749-28.898766zM403.633196 587.754228c55.009164-28.145032 103.924236-53.443717 110.710514-57.258768 2.869539-1.613614 6.127987-4.284239 7.239409-5.935317l2.023039-3.001554v-55.990355c0-30.795141-0.243514-56.625454-0.54144-57.401487-1.10607-2.881135-4.193256-1.145318-17.121792 9.621029-52.937066 44.085826-96.333382 95.623356-129.893699 154.261144C367.261319 587.406351 356.803601 607.605516 356.803601 609.225374c0 0.497732 0.70289 0.902696 1.560987 0.898237 0.858989-0.003568 21.229416-10.069701 45.268608-22.368491zM260.538903 721.108858c0.042816-1.039171 0.254218-1.250573 0.538763-0.538763 0.257786 0.643126 0.225674 1.412916-0.070467 1.709057-0.296141 0.296141-0.506652-0.230134-0.468296-1.170294z m499.515676-456.700047c0.042816-1.039171 0.254218-1.250573 0.538763-0.538763 0.257786 0.643126 0.225674 1.412916-0.070467 1.709057-0.296141 0.296141-0.506652-0.230134-0.468296-1.170294z" fill="#CB425B" p-id="6026"></path><path d="M551.909073 990.309452L523.606158 961.956585V589.614032h-1.815205c-1.715301 0-50.381508 24.465564-195.579119 98.324309-34.732395 17.666799-63.367131 31.90478-63.632053 31.638966-1.355828-1.355828 8.163513-38.465383 15.71958-61.279869 21.216036-64.052182 53.240343-125.043046 94.138189-179.290448 44.044795-58.421926 101.793267-111.144022 164.994488-150.63698C553.423675 318.37702 578.658137 304.176503 580.42339 304.176503c0.9357 0 1.197054 17.952237 1.380804 94.77418l0.227458 94.774179 1.924919 0.273842c1.058795 0.151639 5.273458-1.404888 9.365919-3.458254 34.732395-17.424177 59.891038-51.253876 66.239347-89.070781 1.80896-10.779727 1.830368-30.406233 0.044599-40.757803-3.664304-21.229416-13.36026-42.10828-27.065721-58.282776-5.878229-6.937916-29.048621-31.396344-69.722577-73.600959-75.744416-78.594332-78.773622-82.04099-87.035254-99.036119-6.068223-12.48254-7.730005-19.961895-7.730006-34.787698 0-13.961463 1.445027-21.109889 6.74703-33.372108 10.083973-23.325598 32.482791-42.217103 57.576318-48.560059 4.495641-1.136398 7.961031-2.279932 7.699677-2.542178s2.366456-0.754625 5.838981-1.097151c7.425836-0.731434 21.25796 0.253326 19.470408 1.386156-0.842933 0.535195-0.555711 0.760869 0.979407 0.770682 3.787399 0.023192 15.407383 3.633977 22.876926 7.109178 16.088865 7.482031 30.169855 19.411536 42.639907 36.120335 9.588917 12.848257 38.63397 59.80273 116.731462 188.701859 11.758242 19.406184 13.470867 24.597579 5.812222 17.616848-1.750089-1.59399-22.169576-22.768103-45.377432-47.052593s-50.257521-52.582945-60.109575-62.885456-26.79188-28.164656-37.644751-39.693656c-40.172656-42.679155-43.800389-45.625405-56.913567-46.215904-9.651356-0.435292-15.685684 1.810744-22.351542 8.317828-8.541718 8.340128-11.753782 18.705078-8.879784 28.659712 2.854375 9.892194-3.359243 2.888271 76.259988 85.9497 33.153569 34.587001 63.495578 66.320518 67.427481 70.519125 24.954376 26.646485 39.798911 56.467571 46.37557 93.161458 1.931163 10.772591 2.651001 35.135576 1.381696 46.743963-5.958508 54.485564-34.382734 100.655085-80.3801 130.559126-4.170064 2.710765-17.616848 10.156224-29.881741 16.545565l-22.299807 11.616415-0.224782 230.64958c-0.123095 126.857358-0.533411 230.649579-0.909832 230.649579s-13.4227-12.759058-28.988857-28.352866zM414.633245 582.361243c72.177339-37.006976 99.82464-51.374295 103.31233-53.685447 5.941561-3.939038 5.659691-0.762653 5.659691-63.676653 0-56.64597-0.118635-59.13552-2.819588-59.13552-0.373745 0-5.410825 3.878382-11.194503 8.617537-45.046502 36.917776-84.819546 80.931351-115.53976 127.857281-16.989777 25.954299-38.107694 64.267152-37.005192 67.139367 0.325577 0.849177 0.838473 1.544039 1.140858 1.544039s25.702758-12.897316 56.446164-28.660604zM260.539795 721.108858c0.042816-1.039171 0.254218-1.250573 0.538763-0.538763 0.257786 0.643126 0.225674 1.412916-0.070467 1.709057-0.296141 0.296141-0.506652-0.230134-0.468296-1.170294z" fill="#C93953" p-id="6027"></path><path d="M552.372909 990.318372L524.49815 961.769267V777.533613c0-120.759699-0.307737-185.043798-0.891992-186.583376-0.690402-1.814312-1.302309-2.218385-2.695601-1.775957-1.996279 0.633315-89.618464 44.940355-191.662381 96.914961C292.749636 704.67836 262.769775 719.768194 262.622597 719.621907c-0.146287-0.146287 0.670778-4.688311 1.815204-10.093785 14.563558-68.760117 49.817769-147.488247 95.073889-212.313786C408.093157 427.627342 474.16035 366.334985 548.581941 321.805838 559.458003 315.299647 579.45647 304.176503 580.280671 304.176503c0.227458 0 0.412992 42.113631 0.412992 93.586046 0 51.472414 0.243514 94.221144 0.54144 94.997178 2.247821 5.855929 27.118349-8.390079 44.182161-25.305821 44.432811-44.051039 48.439641-113.944878 9.327563-162.721692-6.124419-7.63813-19.87894-22.228448-73.681238-78.159039-54.610443-56.770849-62.241437-64.850515-69.975902-74.089771-16.238719-19.399048-22.766319-35.788514-22.778807-57.198113-0.00892-15.388651 2.742876-26.51447 9.867219-39.885435 7.972627-14.962278 20.786988-27.21736 36.956132-35.342518 9.055506-4.550945 20.655865-8.328532 26.233493-8.543502l2.31026-0.089199-2.229981-0.648478C537.807567 9.71558 551.815413 8.695141 559.39378 9.467606c4.905958 0.499516 6.014704 0.834013 4.35203 1.313905-2.137213 0.617259-2.115806 0.647586 0.5013 0.732325 5.07722 0.165911 16.84795 3.757071 25.129206 7.668458 16.464393 7.775497 29.830898 19.084175 42.36339 35.84025 7.630994 10.201716 31.428456 48.303166 76.228768 122.045059 50.959519 83.880278 52.747963 86.969247 50.367236 86.969247-0.482568 0-27.488526-27.796263-60.013241-61.770465-77.732667-81.195381-71.82857-74.996927-93.250657-97.896152-25.029303-26.7562-32.154538-33.455954-38.949734-36.626987-13.214866-6.165451-25.935567-3.49661-36.128364 7.578366-4.996941 5.429557-7.448136 11.083896-7.947651 18.330441-0.450456 6.527599 1.528875 13.133694 5.828278 19.456136 1.331744 1.958815 33.367647 35.816166 71.189903 75.238657 37.823149 39.421599 71.056105 74.285117 73.850717 77.473989 11.248023 12.832201 23.162364 32.601426 29.887985 49.594771 26.452031 66.829846 9.329347 144.459934-42.621175 193.230503-15.000634 14.081882-27.726688 22.378302-59.188147 38.581342-10.174956 5.240455-18.804981 9.997449-19.177834 10.570109S580.938961 662.347083 580.693663 788.854779l-0.445996 230.013589z m-144.112057-404.36686c70.023178-35.906257 105.487007-54.30003 109.302058-56.689677 6.882612-4.310999 6.455348-0.4121 6.772005-61.899805 0.156099-30.242998-0.069575-56.351612-0.502191-58.018745-0.450456-1.740277-1.439676-3.157653-2.321856-3.327132-3.128217-0.602095-32.682597 24.77687-55.892237 47.998997-42.222455 42.242078-77.903038 91.732486-105.668973 146.565035-4.094245 8.083234-4.502777 10.441662-1.810744 10.441662 0.67613 0 23.231047-11.281918 50.121046-25.070335zM260.538011 721.108858c0.043708-1.039171 0.25511-1.250573 0.539655-0.538763 0.257786 0.643126 0.225674 1.412916-0.070467 1.709057-0.296141 0.296141-0.506652-0.230134-0.468296-1.170294z" fill="#C7324D" p-id="6028"></path><path d="M552.374693 989.672569l-27.872083-28.384978-0.225674-186.059778L524.052154 589.168036l-1.819665-0.260462c-1.758117-0.251542-51.938034 24.899072-192.992341 96.731211C293.23042 703.976362 263.560081 718.774514 263.307647 718.52208c-0.252434-0.252434 0.44332-4.574136 1.546714-9.603189 18.963756-86.490247 67.305277-182.718374 127.441613-253.68082 50.873888-60.031972 111.483871-109.24051 181.484749-147.344636l6.91294-3.763316v190.006844l2.233549 0.560171c5.767622 1.447703 29.360818-13.312093 42.843281-26.803476 14.181785-14.189813 23.450477-29.252887 29.871038-48.54222 11.723455-35.226559 6.470512-75.073638-13.968599-105.947275-7.195702-10.87071-15.427898-19.82542-76.541858-83.263019-66.729942-69.264984-73.853393-76.97715-81.733252-88.481174-6.04414-8.821804-9.900222-16.902362-12.687699-26.58583-2.834751-9.846703-2.781232-30.440129 0.104364-40.585649 5.618659-19.754061 18.736298-37.962299 35.244398-48.91864 10.662876-7.077959 28.204796-13.738465 37.115799-14.093478l3.177277-0.126663-3.567969-0.588715C536.580185 9.736988 553.420107 8.654109 560.177841 9.642437c5.084356 0.743922 5.358198 0.875044 2.229981 1.067714-3.251312 0.198914-3.092537 0.28633 1.783984 0.982084 25.147938 3.589377 49.717866 19.758521 68.187458 44.873455 8.436463 11.472805 83.141708 132.672256 120.757915 195.914508 5.729266 9.633517 6.457132 12.309493 2.277256 8.378484-5.289514-4.974641-119.171952-124.017254-146.334009-152.964188C577.899944 74.664214 574.37925 71.329055 566.421787 67.481c-5.197639-2.514526-6.629287-2.80264-13.82588-2.786584-9.976042 0.0223-14.667921 2.039986-21.98761 9.455118-6.866557 6.959324-9.100105 12.852717-8.579182 22.638764 0.423696 7.951219 2.606401 13.294253 8.13051 19.906592 1.718869 2.057826 30.556979 32.338288 64.084293 67.291005 33.527314 34.951825 65.142196 67.96446 70.253312 73.361013 24.611851 25.979275 39.857783 54.627391 46.981233 88.2778 3.113053 14.707169 3.972934 43.941324 1.746521 59.346922-4.595544 31.791497-18.04322 62.577718-37.989951 86.969248-7.639914 9.343619-23.489725 24.202426-33.02423 30.961052-11.34079 8.037742-16.311863 10.919769-40.45185 23.450477l-20.619293 10.703907-0.445997 230.501509-0.445996 230.500616z m-143.004203-403.828988c60.48778-31.011896 100.780856-51.848835 106.780396-55.220566 8.513174-4.783755 7.86648 0.300601 8.157269-64.103917 0.140935-31.15283 0.033004-57.545098-0.239945-58.648493-0.88218-3.567969-4.434986-2.515418-11.905421 3.53229-63.224413 51.175381-110.89248 109.711482-150.312295 184.584422-6.915616 13.133694-7.630102 16.866682-2.943575 15.378839 0.983867-0.312197 23.691315-11.79749 50.462679-25.522575zM260.538011 721.108858c0.042816-1.039171 0.254218-1.250573 0.538763-0.538763 0.257786 0.643126 0.225674 1.412916-0.070467 1.709057-0.296141 0.296141-0.506652-0.230134-0.468296-1.170294z" fill="#C62B47" p-id="6029"></path></svg>