<?xml version="1.0" standalone="no"?><!DOCTYPE svg PUBLIC "-//W3C//DTD SVG 1.1//EN" "http://www.w3.org/Graphics/SVG/1.1/DTD/svg11.dtd"><svg t="1776841410825" class="icon" viewBox="0 0 1351 1024" version="1.1" xmlns="http://www.w3.org/2000/svg" p-id="8836" xmlns:xlink="http://www.w3.org/1999/xlink" width="263.8671875" height="200"><path d="M901.320577 589.116701c88.802969 0 217.288577-18.315876 217.288578-123.93567 0.263918-8.155052-0.475052-16.310103-2.195794-24.280412l-52.889072-229.713815c-12.208825-50.545485-22.929155-73.474639-111.663505-117.839175C883.004701 58.141031 733.009814 0 688.645278 0c-41.313649 0-53.31134 53.242722-102.579464 53.242722-47.415423 0-82.627299-39.756536-126.997113-39.756536-42.59101 0-70.344577 29.030928-91.779959 88.73435 0 0-59.698144 168.379381-67.367587 192.802309-1.219299 4.486598-1.741856 9.131546-1.562392 13.771217 0 65.451546 257.683794 280.042887 602.961814 280.042886m230.922557-80.785154c12.277443 58.141031 12.277443 64.242804 12.277443 71.912247 0 99.380784-111.732124 154.539546-258.602226 154.539547-331.934351 0.211134-622.697567-194.296082-622.697567-322.85031a130.971711 130.971711 0 0 1 10.715051-52.033979C154.539546 365.583835 0 386.876701 0 523.316784c0 223.464247 529.492454 498.893856 948.741278 498.893855 321.425155 0 402.49534-145.381608 402.495341-260.169897 0-90.291464-78.087918-192.797031-218.85097-253.988948" fill="#EE0000" p-id="8837"></path><path d="M1132.243134 508.051794c12.277443 58.141031 12.277443 64.242804 12.277443 71.912247 0 99.380784-111.732124 154.539546-258.602226 154.539547-331.934351 0.211134-622.697567-194.296082-622.697567-322.85031a130.971711 130.971711 0 0 1 10.715051-52.033979l25.98532-64.311423a45.647175 45.647175 0 0 0-1.562392 13.486186c0 65.451546 257.683794 280.042887 602.961814 280.042886 88.802969 0 217.288577-18.315876 217.288578-123.946226 0.263918-8.149773-0.475052-16.304825-2.195794-24.275134l15.829773 67.436206z" p-id="8838"></path></svg>